<svg width="75" height="72" viewBox="0 0 75 72" fill="none" xmlns="http://www.w3.org/2000/svg"><path fill-rule="evenodd" clip-rule="evenodd" d="M72.9 39.18 75 37.1l-9.94-9.84V.4H51.2v13.12L37.45 0 0 37.2l2.1 2.08 7.84-7.76v37.6H6.02V72h64.16v-2.88h-5.12v-37.7l7.83 7.76ZM54.11 3.38h7.93v20.98l-7.93-7.85V3.38Zm7.93 65.64h-49.1V28.54l24.5-24.36 24.6 24.36v40.48Zm-31.93-4.48h16.06V40.77H30.12v23.77Zm13.05-2.88H33.03v-18h10.14v18ZM37.85 35.3a7.78 7.78 0 0 1-7.73-7.75 7.63 7.63 0 0 1 7.73-7.66 7.72 7.72 0 0 1 7.83 7.66 7.8 7.8 0 0 1-7.83 7.75Zm5.02-7.75a5.01 5.01 0 0 0-10.04 0 5.01 5.01 0 0 0 10.04 0ZM20.08 40.77h-3.01v3.88h3.01v-3.88Zm3.01 0h3.01v3.88h-3v-3.88Zm-3.01 5.97h-3.01v3.88h3.01v-3.88Zm3.01 0h3.01v3.88h-3v-3.88Zm29.12-5.97H49.2v3.88h3v-3.88Zm3.01 0h3.01v3.88h-3v-3.88Zm-3.01 5.97H49.2v3.88h3v-3.88Zm3.01 0h3.01v3.88h-3v-3.88Z" fill="#81B3D2"/></svg>